<?xml version="1.0"?>
<svg xmlns="http://www.w3.org/2000/svg" xmlns:xlink="http://www.w3.org/1999/xlink" version="1.1" id="Capa_1" x="0px" y="0px" viewBox="0 0 512 512" style="enable-background:new 0 0 512 512;" xml:space="preserve" width="512px" height="512px"><g><g>
	<g>
		<path d="M467,0H45C20.187,0,0,20.187,0,45v301c0,24.813,20.187,45,45,45h136v32.509c-34.192,6.968-60,37.271-60,73.491    c0,8.284,6.716,15,15,15h240c8.284,0,15-6.716,15-15c0-36.219-25.808-66.522-60-73.491V391h136c24.813,0,45-20.187,45-45V45    C512,20.187,491.813,0,467,0z M358.43,482H153.57c6.19-17.461,22.873-30,42.43-30h120C335.557,452,352.239,464.539,358.43,482z     M211,422v-31h90v31H211z M482,346c0,8.271-6.729,15-15,15c-23.005,0-399.629,0-422,0c-8.271,0-15-6.729-15-15v-15h452V346z     M482,301H30V45c0-8.271,6.729-15,15-15h422c8.271,0,15,6.729,15,15V301z" data-original="#000000" class="active-path" data-old_color="#974B4B" fill="#E58440"/>
	</g>
</g><g>
	<g>
		<path d="M166,91h-61c-8.284,0-15,6.716-15,15s6.716,15,15,15h61c8.284,0,15-6.716,15-15S174.284,91,166,91z" data-original="#000000" class="active-path" data-old_color="#974B4B" fill="#E58440"/>
	</g>
</g><g>
	<g>
		<path d="M166,151h-61c-8.284,0-15,6.716-15,15s6.716,15,15,15h61c8.284,0,15-6.716,15-15S174.284,151,166,151z" data-original="#000000" class="active-path" data-old_color="#974B4B" fill="#E58440"/>
	</g>
</g><g>
	<g>
		<path d="M166,211h-61c-8.284,0-15,6.716-15,15s6.716,15,15,15h61c8.284,0,15-6.716,15-15S174.284,211,166,211z" data-original="#000000" class="active-path" data-old_color="#974B4B" fill="#E58440"/>
	</g>
</g><g>
	<g>
		<path d="M413.615,107.104c-1.773-1.037,13.354,8.097-74.591-45.225c-4.767-2.889-10.74-2.899-15.517-0.022l-75.067,45.215    c-4.575,2.672-7.441,7.635-7.441,12.958v90.647c0.001,5.251,2.748,10.121,7.243,12.837l75,45.324    c4.829,2.921,10.862,2.815,15.516,0l75-45.324c4.495-2.716,7.242-7.586,7.242-12.838v-90.647    C421,111.063,413.713,107.204,413.615,107.104z M316,229.409l-45-27.194V146.62l45,27.194V229.409z M331,147.827l-45.963-27.776    l46.185-27.819l45.812,27.776L331,147.827z M391,202.215l-45,27.194v-55.595l45-27.194V202.215z" data-original="#000000" class="active-path" data-old_color="#974B4B" fill="#E58440"/>
	</g>
</g></g> </svg>
