<?xml version="1.0"?>
<svg xmlns="http://www.w3.org/2000/svg" xmlns:xlink="http://www.w3.org/1999/xlink" version="1.1" id="Capa_1" x="0px" y="0px" viewBox="0 0 512 512" style="enable-background:new 0 0 512 512;" xml:space="preserve" width="512px" height="512px" class=""><g><g>
	<g>
		<g>
			<path d="M100.255,176.793c-2.226,1.9-3.507,4.68-3.507,7.605v76.976c0,5.522,4.477,10,10,10h85.528c5.523,0,10-4.478,10-10     v-76.976c0-2.926-1.281-5.705-3.507-7.605c-13.721-11.715-31.214-18.167-49.257-18.167     C131.469,158.626,113.976,165.078,100.255,176.793z M182.276,189.237v62.137h-65.528v-62.137     C136.351,174.981,162.674,174.981,182.276,189.237z" data-original="#000000" class="active-path" data-old_color="#502D2D" fill="#29304D"/>
			<path d="M486.626,237.697h-10.924c-3.686-12.86-14.286-22.826-27.508-25.584v-41.14v-20.162c0-12.158-9.891-22.049-22.049-22.049     h-32.688c-12.158,0-22.049,9.891-22.049,22.049v20.162v40.373H240.325v-78.26c12.742-2.8,22.308-14.172,22.308-27.742     c0-15.664-12.744-28.408-28.409-28.408h-3.899H68.699H58.537c-15.665,0-28.409,12.744-28.409,28.408     c0,15.665,12.744,28.409,28.409,28.409h0.162v131.073H53.67c-19.905,0-36.099,16.193-36.099,36.099v4.813H10     c-5.523,0-10,4.478-10,10c0,5.522,4.477,10,10,10h7.571v21.183c0,19.905,16.194,36.1,36.099,36.1h12.113     c1.994,12.25,7.583,23.304,15.652,32.043H34.807c-5.523,0-10,4.478-10,10c0,5.522,4.477,10,10,10h458.924c5.523,0,10-4.478,10-10     c0-5.522-4.477-10-10-10h-46.517c9.075-9.83,15.009-22.589,16.222-36.682h3.676c5.523,0,10-4.478,10-10V319.97h9.514     c13.991,0,25.374-11.382,25.374-25.373v-31.525C512,249.08,500.618,237.697,486.626,237.697z M37.571,300.926     c0-8.877,7.222-16.099,16.099-16.099h5.028v20.911H37.571V300.926z M53.67,363.021c-8.877,0-16.099-7.223-16.099-16.1v-21.183     h21.127v37.283H53.67z M391.408,150.812c0-1.13,0.919-2.049,2.049-2.049h32.688c1.13,0,2.049,0.919,2.049,2.049v10.162h-36.786     V150.812z M391.408,180.974h36.786v28.712h-36.786V180.974z M118.578,378.382c1.775,2.786,4.884,4.639,8.432,4.639h40.832     c-4.5,18.369-21.095,32.043-40.832,32.043c-21.366-0.001-39.048-16.024-41.69-36.682c-0.225-1.757-0.354-3.544-0.354-5.361     c0-5.146,0.934-10.077,2.633-14.639c5.957-15.986,21.374-27.405,39.411-27.405c18.036,0,33.453,11.419,39.41,27.405     c0.562,1.507,1.034,3.056,1.422,4.639H127.01c-5.523,0-10,4.478-10,10C117.01,374.996,117.59,376.832,118.578,378.382z      M172.584,415.063c8.068-8.739,13.658-19.793,15.652-32.043h15.233c1.994,12.25,7.583,23.304,15.652,32.043H172.584z      M203.802,133.755h16.523v87.593v47.265v61.103c-7.651,7.838-13.245,17.684-15.913,28.667h-17.119     c-6.598-27.167-31.115-47.405-60.283-47.405c-19.506-0.001-36.929,9.055-48.311,23.175v-18.415v-40.911V133.754h42.415     c5.523,0,10-4.478,10-10c0-5.522-4.477-10-10-10H78.699h-20h-0.162c-4.637,0-8.409-3.772-8.409-8.409     c0-4.637,3.772-8.408,8.409-8.408h0.162h20h141.626h13.899c2.402,0,4.567,1.018,6.101,2.639c1.426,1.507,2.308,3.535,2.308,5.77     s-0.882,4.263-2.308,5.77c-1.534,1.621-3.698,2.639-6.101,2.639h-13.899h-16.523c-5.523,0-10,4.478-10,10     C193.802,129.277,198.279,133.755,203.802,133.755z M264.696,415.064c-19.737-0.001-36.333-13.674-40.833-32.043h81.665     C301.028,401.39,284.433,415.064,264.696,415.064z M240.325,363.021v-4.639v-19.589c6.88-4.913,15.29-7.816,24.371-7.816     c18.036,0,33.453,11.419,39.41,27.405c0.562,1.507,1.034,3.056,1.422,4.639H240.325z M310.27,415.063     c8.068-8.739,13.658-19.793,15.652-32.043h14.491c1.994,12.25,7.583,23.304,15.652,32.043H310.27z M443.329,378.382     c-2.643,20.658-20.324,36.682-41.69,36.682c-19.736-0.001-36.332-13.674-40.832-32.043h40.833c3.548,0,6.657-1.853,8.432-4.639     c0.988-1.551,1.568-3.387,1.568-5.361c0-5.522-4.477-10-10-10h-40.833c0.388-1.583,0.86-3.132,1.422-4.639     c5.957-15.986,21.374-27.405,39.411-27.405c18.036,0,33.453,11.419,39.41,27.405c1.7,4.561,2.633,9.492,2.633,14.639     C443.683,374.838,443.554,376.625,443.329,378.382z M457.113,309.97v35.312c-10.203-20.32-31.23-34.305-55.473-34.305     c-29.168,0-53.685,20.238-60.284,47.405c-0.371,1.526-0.688,3.072-0.943,4.639h-14.491c-0.255-1.567-0.573-3.113-0.943-4.639     c-6.598-27.167-31.115-47.405-60.283-47.405c-8.648,0-16.885,1.784-24.371,4.994v-37.359h141.083c5.523,0,10-4.478,10-10     c0-5.522-4.477-10-10-10H240.325v-27.265h200.437c9.016,0,16.351,7.335,16.351,16.351V309.97z M492,294.597     c0,2.963-2.411,5.373-5.374,5.373h-9.514v-42.272h9.514c2.963,0,5.374,2.411,5.374,5.374V294.597z" data-original="#000000" class="active-path" data-old_color="#502D2D" fill="#29304D"/>
			<path d="M431.99,264.79c-0.25-0.61-0.56-1.19-0.92-1.73c-0.37-0.55-0.78-1.06-1.24-1.52c-0.47-0.46-0.98-0.88-1.53-1.24     c-0.54-0.36-1.12-0.67-1.72-0.92c-0.61-0.25-1.24-0.44-1.87-0.57c-1.29-0.26-2.62-0.26-3.91,0c-0.64,0.13-1.27,0.32-1.87,0.57     c-0.61,0.25-1.19,0.56-1.73,0.92c-0.55,0.36-1.06,0.78-1.52,1.24c-0.46,0.46-0.88,0.97-1.24,1.52c-0.36,0.54-0.67,1.12-0.92,1.73     c-0.25,0.6-0.44,1.229-0.57,1.87c-0.13,0.64-0.2,1.3-0.2,1.949c0,0.65,0.07,1.311,0.2,1.95c0.13,0.641,0.32,1.271,0.57,1.88     c0.25,0.601,0.56,1.181,0.92,1.721c0.36,0.55,0.78,1.06,1.24,1.52c0.46,0.46,0.97,0.88,1.52,1.25c0.54,0.36,1.12,0.67,1.73,0.92     c0.6,0.25,1.23,0.44,1.87,0.57c0.64,0.13,1.3,0.189,1.95,0.189s1.31-0.06,1.96-0.189c0.63-0.13,1.26-0.32,1.87-0.57     c0.6-0.25,1.18-0.56,1.72-0.92c0.55-0.37,1.06-0.79,1.52-1.25c0.46-0.46,0.88-0.97,1.25-1.52c0.36-0.54,0.67-1.12,0.92-1.721     c0.25-0.609,0.44-1.239,0.57-1.88c0.13-0.64,0.19-1.3,0.19-1.95c0-0.649-0.06-1.31-0.19-1.949     C432.43,266.02,432.24,265.39,431.99,264.79z" data-original="#000000" class="active-path" data-old_color="#502D2D" fill="#29304D"/>
			<path d="M156.91,132.069c0.54,0.36,1.12,0.671,1.72,0.921c0.61,0.25,1.24,0.439,1.87,0.569c0.65,0.13,1.31,0.19,1.96,0.19     s1.31-0.061,1.95-0.19c0.64-0.13,1.27-0.319,1.87-0.569c0.61-0.25,1.19-0.561,1.73-0.921c0.55-0.369,1.06-0.779,1.52-1.25     c1.86-1.859,2.93-4.439,2.93-7.069c0-0.65-0.07-1.311-0.2-1.95c-0.13-0.639-0.32-1.27-0.57-1.87c-0.25-0.6-0.56-1.189-0.92-1.729     c-0.36-0.551-0.78-1.061-1.24-1.521c-0.46-0.46-0.97-0.88-1.52-1.24c-0.54-0.359-1.12-0.67-1.73-0.92     c-0.6-0.25-1.23-0.439-1.87-0.569c-1.29-0.261-2.62-0.261-3.91,0c-0.63,0.13-1.26,0.319-1.87,0.569     c-0.6,0.25-1.18,0.561-1.72,0.92c-0.55,0.36-1.06,0.78-1.52,1.24c-0.46,0.46-0.88,0.97-1.25,1.521     c-0.36,0.54-0.67,1.13-0.92,1.729c-0.25,0.601-0.44,1.23-0.57,1.87s-0.19,1.3-0.19,1.95c0,2.63,1.06,5.21,2.93,7.069     C155.85,131.29,156.36,131.7,156.91,132.069z" data-original="#000000" class="active-path" data-old_color="#502D2D" fill="#29304D"/>
		</g>
	</g>
</g></g> </svg>
