<?xml version="1.0"?>
<svg xmlns="http://www.w3.org/2000/svg" xmlns:xlink="http://www.w3.org/1999/xlink" version="1.1" id="Capa_1" x="0px" y="0px" viewBox="0 0 480 480" style="enable-background:new 0 0 480 480;" xml:space="preserve" width="512px" height="512px"><g><g>
	<g>
		<path d="M448,228.848v-81.36c-0.022-17.381-14.107-31.466-31.488-31.488H8c-4.418,0-8,3.582-8,8v208c0,4.418,3.582,8,8,8h113.136    c4.339,17.046,21.674,27.347,38.719,23.008c11.304-2.877,20.131-11.704,23.009-23.008h202.272    c4.339,17.046,21.674,27.347,38.719,23.008c11.304-2.877,20.131-11.704,23.009-23.008H472c4.418,0,8-3.582,8-8v-63.824    C479.975,249.149,466.624,232.741,448,228.848z M16,180h32v48H16V180z M152,348c-8.837,0-16-7.163-16-16s7.163-16,16-16    s16,7.163,16,16S160.837,348,152,348z M272,324h-89.136c-4.339-17.046-21.674-27.347-38.719-23.009    c-11.304,2.877-20.131,11.704-23.009,23.009H16v-40h32v-16H16v-24h256V324z M64,228v-48h32v48H64z M112,228v-48h32v48H112z     M160,228v-48h32v48H160z M208,228v-48h32v48H208z M336,324h-48V180h48V324z M344,164h-64c-4.418,0-8,3.582-8,8v56h-16v-56    c0-4.418-3.582-8-8-8H16v-32h400.512c8.548,0.013,15.475,6.94,15.488,15.488V148h-56c-4.418,0-8,3.582-8,8v72h-16v-56    C352,167.582,348.418,164,344,164z M432,164v64h-48v-64H432z M416,348c-8.837,0-16-7.163-16-16s7.163-16,16-16s16,7.163,16,16    S424.837,348,416,348z M464,276h-32v16h32v32h-17.136c-4.338-17.046-21.674-27.347-38.719-23.009    c-11.304,2.877-20.131,11.704-23.008,23.009H352v-80h87.824c13.347,0.013,24.163,10.829,24.176,24.176V276z" data-original="#000000" class="active-path" data-old_color="#622929" fill="#29304D"/>
	</g>
</g></g> </svg>
